<svg aria-hidden="true" style="position: absolute; width: 0; height: 0; overflow: hidden;" version="1.1" xmlns="http://www.w3.org/2000/svg" xmlns:xlink="http://www.w3.org/1999/xlink">
<defs>
<symbol id="icon-lock" viewBox="0 0 32 32">
<path fill="#fff" style="fill: var(--color1, #fff); stroke: var(--color2, #fed136)" stroke="#fed136" stroke-linejoin="miter" stroke-linecap="butt" stroke-miterlimit="4" stroke-width="1.3151" d="M31.377 15.916c0-8.382-6.795-15.177-15.177-15.177s-15.177 6.795-15.177 15.177c0 8.382 6.795 15.177 15.177 15.177s15.177-6.795 15.177-15.177z"></path>
<path fill="#fed136" style="fill: var(--color2, #fed136)" d="M15.342 6.137c2.26 0 4.091 1.603 4.091 3.58v4.091h0.511c0.847 0 1.534 0.687 1.534 1.534v5.625c0 0.847-0.687 1.534-1.534 1.534h-9.205c-0.847 0-1.534-0.687-1.534-1.534v-5.625c0-0.848 0.687-1.534 1.534-1.534h0.511v-4.091c0-1.977 1.832-3.58 4.091-3.58zM17.271 13.808h-3.858c-0.075-0.16-0.116-0.332-0.116-0.512v-3.58c0-0.847 0.916-1.534 2.046-1.534s2.046 0.687 2.046 1.534v3.58c0 0.179-0.041 0.352-0.116 0.512zM16.365 19.16c0.611-0.354 1.023-1.015 1.023-1.772 0-1.129-0.916-2.045-2.046-2.045s-2.046 0.916-2.046 2.045c0 0.757 0.411 1.418 1.023 1.772v0.785c0 0.565 0.458 1.023 1.023 1.023s1.023-0.458 1.023-1.023v-0.785z"></path>
</symbol>
<symbol id="icon-pc" viewBox="0 0 32 32">
<path fill="#fff" style="fill: var(--color1, #fff); stroke: var(--color2, #fed136)" stroke="#fed136" stroke-linejoin="miter" stroke-linecap="butt" stroke-miterlimit="4" stroke-width="1.3151" d="M31.359 15.92c0-8.382-6.795-15.177-15.177-15.177s-15.177 6.795-15.177 15.177c0 8.382 6.795 15.177 15.177 15.177s15.177-6.795 15.177-15.177z"></path>
<path fill="#fed136" style="fill: var(--color2, #fed136)" d="M21.757 7.89h-11.795c-0.977 0-1.769 0.792-1.769 1.769v7.667c0 0.207 0.036 0.405 0.101 0.59h-0.101v1.18h1.769v-9.436h11.795v9.436h1.769v-1.18h-0.101c0.065-0.184 0.101-0.383 0.101-0.59v-7.667c0-0.977-0.792-1.769-1.769-1.769zM8.193 20.275h15.333c0.651 0 1.18 0.528 1.18 1.18s-1.118 1.179-1.769 1.179h-14.154c-0.651 0-1.769-0.528-1.769-1.179s0.528-1.18 1.179-1.18zM17.629 21.455h-3.538c-0.326 0-0.59 0.132-0.59 0.295s0.264 0.295 0.59 0.295h3.538c0.326 0 0.59-0.132 0.59-0.295s-0.264-0.295-0.59-0.295zM11.9 14.809l0.83-0.834c0.229-0.23 0.601-0.23 0.83 0l1.088 1.093 3.508-3.524c0.229-0.23 0.601-0.23 0.83 0l0.83 0.834c0.229 0.23 0.229 0.604 0 0.834l-4.567 4.587c-0.196 0.197-0.497 0.226-0.723 0.085-0.192 0.046-0.402-0.006-0.552-0.157l-2.076-2.085c-0.229-0.23-0.229-0.604 0-0.834z"></path>
</symbol>
<symbol id="icon-cart" viewBox="0 0 32 32">
<path fill="#fff" style="fill: var(--color1, #fff); stroke: var(--color2, #fed136)" stroke="#fed136" stroke-linejoin="miter" stroke-linecap="butt" stroke-miterlimit="4" stroke-width="1.3151" d="M31.41 15.917c0-8.382-6.795-15.177-15.177-15.177s-15.177 6.795-15.177 15.177c0 8.382 6.795 15.177 15.177 15.177s15.177-6.795 15.177-15.177z"></path>
<path fill="#fed136" style="fill: var(--color2, #fed136)" d="M17.122 6.737c-0.577 0.333-0.775 1.071-0.442 1.649l1.277 2.212h-4.99l1.277-2.212c0.333-0.577 0.136-1.315-0.442-1.649s-1.315-0.136-1.649 0.442l-1.81 3.136c-0.053 0.091-0.092 0.186-0.119 0.283h-1.703c-0.833 0-1.509 0.675-1.509 1.508s0.675 1.509 1.509 1.509h13.88c0.833 0 1.509-0.676 1.509-1.509s-0.675-1.508-1.509-1.508h-1.703c-0.027-0.097-0.066-0.192-0.119-0.283l-1.81-3.136c-0.333-0.577-1.071-0.775-1.649-0.442zM8.778 23.271l-0.522-9.052h14.414l-0.522 9.052h-13.369zM16.066 17.236c0-0.333-0.27-0.603-0.603-0.603s-0.604 0.27-0.604 0.603v3.621c0 0.333 0.27 0.603 0.604 0.603s0.603-0.27 0.603-0.603v-3.621zM19.083 16.633c0.333 0 0.603 0.27 0.603 0.603v3.621c0 0.333-0.27 0.603-0.603 0.603s-0.604-0.27-0.604-0.603v-3.621c0-0.333 0.27-0.603 0.604-0.603zM12.445 17.236c0-0.333-0.27-0.603-0.603-0.603s-0.604 0.27-0.604 0.603v3.621c0 0.333 0.27 0.603 0.604 0.603s0.603-0.27 0.603-0.603v-3.621z"></path>
</symbol>
<symbol id="icon-Logo-Treehouse" viewBox="0 0 75 32">
<path fill="#fed136" style="fill: var(--color2, #fed136)" d="M25.087 11.914c0.727 0 1.090 0.093 1.090 0.28 0 0.208-0.363 0.374-1.090 0.498s-1.349 0.187-1.868 0.187c-1.453 5.355-2.48 8.676-3.082 9.963-1.536 3.259-3.197 5.584-4.982 6.974s-3.56 2.086-5.324 2.086c-1.847 0-3.29-0.643-4.328-1.93-0.394-0.477-0.592-0.934-0.592-1.37 0.021-0.208 0.083-0.322 0.187-0.343 0.166 0 0.363 0.156 0.592 0.467 0.353 0.477 0.654 0.851 0.903 1.121 0.27 0.27 0.654 0.54 1.152 0.809 0.519 0.27 1.059 0.405 1.619 0.405 1.474 0 2.885-0.509 4.234-1.526s2.501-2.314 3.456-3.892c0.955-1.578 1.754-3.176 2.397-4.795 0.643-1.598 1.131-3.134 1.463-4.608-0.872 1.681-2.522 3.093-4.95 4.234s-4.878 1.712-7.348 1.712c-2.615 0-4.691-0.747-6.227-2.242-1.536-1.515-2.304-3.383-2.304-5.604 0-1.308 0.228-2.574 0.685-3.799s1.079-2.325 1.868-3.3c0.809-0.996 1.754-1.899 2.833-2.709 1.079-0.83 2.231-1.515 3.456-2.055 1.245-0.56 2.532-0.996 3.861-1.308 1.349-0.311 2.678-0.467 3.985-0.467 0.291 0 0.581 0.010 0.872 0.031 1.494 0.083 2.709 0.311 3.643 0.685 0.955 0.374 1.557 0.758 1.806 1.152 0.125 0.208 0.187 0.394 0.187 0.56 0 0.083-0.021 0.176-0.062 0.28-0.041 0.083-0.093 0.156-0.156 0.218-0.041 0.042-0.114 0.114-0.218 0.218s-0.176 0.187-0.218 0.249c-0.062 0.083-0.135 0.197-0.218 0.343-0.083 0.125-0.166 0.249-0.249 0.374-0.062 0.125-0.135 0.249-0.218 0.374-0.083 0.104-0.166 0.197-0.249 0.28-0.062 0.062-0.125 0.093-0.187 0.093-0.041 0-0.083-0.010-0.125-0.031-0.021-0.021-0.041-0.052-0.062-0.093v-0.031c0-0.145 0.073-0.363 0.218-0.654 0.145-0.311 0.218-0.571 0.218-0.778 0-0.311-0.135-0.654-0.405-1.027-0.643-0.893-1.982-1.432-4.016-1.619-0.249-0.021-0.519-0.031-0.809-0.031-0.519 0-1.079 0.031-1.681 0.093-0.581 0.062-1.235 0.187-1.962 0.374-0.706 0.166-1.422 0.384-2.148 0.654-0.706 0.249-1.432 0.592-2.179 1.027-0.747 0.415-1.443 0.893-2.086 1.432-0.643 0.519-1.266 1.162-1.868 1.93-0.602 0.747-1.111 1.557-1.526 2.429-0.83 1.744-1.245 3.425-1.245 5.044 0 2.034 0.747 3.695 2.242 4.982 1.495 1.266 3.197 1.899 5.106 1.899 3.093 0 5.615-0.654 7.566-1.962 1.972-1.328 3.622-3.383 4.95-6.165-1.764 0.104-4.587 0.156-8.469 0.156-0.353 0-0.643-0.104-0.872-0.311-0.208-0.228-0.311-0.477-0.311-0.747s0.208-0.509 0.623-0.716c0.436-0.208 0.809-0.311 1.121-0.311 0.021 0 0.041 0 0.062 0 0.125 0 0.197 0.041 0.218 0.125 0 0.021-0.010 0.041-0.031 0.062-0.104 0.125-0.176 0.228-0.218 0.311-0.021 0.083 0.021 0.145 0.125 0.187 0.228 0 0.893 0.021 1.993 0.062 1.1 0.021 2.397 0.041 3.892 0.062 1.515 0 2.761 0 3.736 0 0.664 0 1.173 0 1.526 0zM35.977 11.479c0.394 0.062 0.592 0.176 0.592 0.342s-0.156 0.332-0.467 0.498c-0.311 0.145-0.592 0.218-0.841 0.218 0 2.429-0.633 4.504-1.899 6.227s-2.522 2.584-3.767 2.584c-1.204 0-1.806-0.872-1.806-2.615 0-0.477 0.041-0.955 0.125-1.432 0.104-0.54 0.291-1.235 0.56-2.086s0.623-1.775 1.059-2.771c0.436-0.996 0.965-1.837 1.588-2.522 0.643-0.706 1.287-1.059 1.93-1.059h0.218c0-0.291 0.083-0.54 0.249-0.747s0.394-0.311 0.685-0.311c0.291 0.021 0.55 0.633 0.778 1.837 0.228 1.183 0.56 1.795 0.996 1.837zM34.389 12.288c-0.187-0.104-0.415-0.467-0.685-1.090-0.27-0.643-0.457-0.965-0.56-0.965-0.643 0-1.391 0.955-2.242 2.864-0.851 1.889-1.38 3.383-1.588 4.483-0.083 0.477-0.125 0.913-0.125 1.308 0 1.017 0.291 1.526 0.872 1.526 0.83 0 1.754-0.841 2.771-2.522 1.038-1.702 1.557-3.57 1.557-5.604zM44.752 1.36c-1.142 2.366-2.304 5.231-3.487 8.593-1.183 3.342-2.055 6.269-2.615 8.78-0.021 0.062-0.031 0.145-0.031 0.249 0 0.249 0.104 0.374 0.311 0.374 0.125 0 0.457-0.156 0.996-0.467 0.56-0.311 0.913-0.467 1.059-0.467 0.125 0 0.218 0.041 0.28 0.125 0 0.249-0.519 0.716-1.557 1.401-1.038 0.664-1.775 0.996-2.211 0.996-0.394 0-0.592-0.187-0.592-0.56 0-0.208 0.041-0.425 0.125-0.654 0.54-1.474 1.038-2.937 1.495-4.39 0.477-1.453 1.017-3.176 1.619-5.168 0.602-2.013 1.048-3.498 1.339-4.452 0.062-0.187 0.093-0.374 0.093-0.56 0-0.083-0.021-0.156-0.062-0.218-0.021-0.083-0.031-0.156-0.031-0.218s0.031-0.187 0.093-0.374c0.415-1.308 0.799-2.179 1.152-2.615s0.872-0.654 1.557-0.654c0.291 0 0.446 0.093 0.467 0.28zM56.329 0.581c0.062 0.041 0.093 0.135 0.093 0.28 0 0.332-0.166 0.955-0.498 1.868-0.311 0.893-0.758 2.065-1.339 3.518-0.56 1.432-0.996 2.605-1.308 3.518 0.021-0.021 0.041-0.031 0.062-0.031 0.083 0 0.166 0.073 0.249 0.218 0.104 0.145 0.156 0.28 0.156 0.405s-0.104 0.187-0.311 0.187c-0.27 0-0.415-0.031-0.436-0.093-0.415 0.934-0.944 2.449-1.588 4.546-0.623 2.096-0.934 3.383-0.934 3.861s0.135 0.716 0.405 0.716c0.311 0 0.675-0.176 1.090-0.529 0.415-0.374 0.778-0.747 1.090-1.121 0.332-0.374 0.529-0.56 0.592-0.56s0.093 0.052 0.093 0.156c0 0.062-0.021 0.145-0.062 0.249-0.021 0.104-0.052 0.197-0.093 0.28-0.021 0.062-0.041 0.093-0.062 0.093-0.477 0.477-1.142 1.027-1.993 1.65-0.851 0.602-1.515 0.903-1.993 0.903-0.394 0-0.592-0.218-0.592-0.654 0-1.121 0.394-2.833 1.183-5.137-0.893 1.266-1.982 2.595-3.269 3.985-1.266 1.391-2.263 2.086-2.989 2.086-0.436 0-0.654-0.311-0.654-0.934 0-0.893 0.311-2.179 0.934-3.861 0.623-1.702 1.36-3.238 2.211-4.608 0.872-1.391 1.598-2.086 2.179-2.086h0.125c0.145 0 0.311-0.073 0.498-0.218 0.208-0.166 0.425-0.249 0.654-0.249 0.311 0 0.747 0.083 1.308 0.249 0.581 0.166 0.893 0.249 0.934 0.249 0.021 0 0.031-0.010 0.031-0.031 1.495-4.027 2.263-6.103 2.304-6.227-0.228 0-0.343-0.125-0.343-0.374 0-0.581 0.311-1.339 0.934-2.273 0.083-0.166 0.249-0.249 0.498-0.249 0.27 0 0.55 0.073 0.841 0.218zM51.877 10.202c0-0.228-0.612-0.342-1.837-0.342-0.353 0-0.612 0.021-0.778 0.062-0.457 0.125-1.339 1.38-2.647 3.767-1.287 2.387-1.93 4.131-1.93 5.231 0 0.332 0.104 0.498 0.311 0.498s0.509-0.166 0.903-0.498c0.394-0.332 0.758-0.685 1.090-1.059s0.695-0.778 1.090-1.214c0.394-0.457 0.602-0.706 0.623-0.747 0.56-0.623 1.069-1.349 1.526-2.179 0.477-0.851 0.861-1.64 1.152-2.366 0.311-0.726 0.477-1.111 0.498-1.152zM62.929 11.074c0.125 0.643 0.187 1.162 0.187 1.557 0 0.457-0.156 0.851-0.467 1.183-0.311 0.311-0.716 0.54-1.214 0.685-0.498 0.125-0.944 0.218-1.339 0.28-0.394 0.041-0.768 0.062-1.121 0.062-0.208 0-0.446 0-0.716 0-0.249-0.021-0.384-0.031-0.405-0.031-0.685 1.744-1.027 3.114-1.027 4.11 0 0.83 0.311 1.245 0.934 1.245 0.436 0 0.944-0.27 1.526-0.809 0.581-0.56 1.090-1.11 1.526-1.65 0.436-0.56 0.695-0.841 0.778-0.841 0.145 0 0.218 0.083 0.218 0.249 0 0.581-0.571 1.391-1.712 2.429-1.142 1.017-2.034 1.526-2.678 1.526-0.519 0-0.996-0.156-1.432-0.467-0.415-0.332-0.623-0.872-0.623-1.619 0-0.228 0.031-0.498 0.093-0.809 0.145-0.789 0.332-1.557 0.56-2.304 0.249-0.747 0.384-1.204 0.405-1.37-0.311-0.083-0.467-0.249-0.467-0.498 0-0.228 0.176-0.342 0.529-0.342h0.218c0.83-1.64 1.308-2.584 1.432-2.833 0.581-1.1 1.692-1.65 3.331-1.65 0.706 0 1.194 0.633 1.463 1.899zM61.808 12.568c0-0.519-0.052-0.965-0.156-1.339s-0.228-0.633-0.374-0.778c-0.125-0.145-0.259-0.218-0.405-0.218-0.415 0-0.913 0.446-1.495 1.339-0.56 0.893-0.976 1.681-1.245 2.366 0.041 0 0.208 0.010 0.498 0.031s0.54 0.031 0.747 0.031c0.851 0 1.463-0.093 1.837-0.28s0.571-0.571 0.592-1.152zM74.948 9.175c-1.059 1.764-2.045 3.788-2.958 6.071s-1.37 3.996-1.37 5.137c0 0.374 0.083 0.56 0.249 0.56 0.062 0 0.259-0.104 0.592-0.311 0.353-0.208 0.56-0.311 0.623-0.311 0.125 0 0.187 0.062 0.187 0.187 0 0.249-0.228 0.529-0.685 0.841s-0.913 0.467-1.37 0.467c-0.602 0-0.903-0.446-0.903-1.339 0-0.809 0.166-1.754 0.498-2.833s0.851-2.46 1.557-4.141c0.706-1.681 1.059-2.532 1.059-2.553 0.104-0.27 0.156-0.477 0.156-0.623 0-0.104-0.031-0.156-0.093-0.156-0.104 0-0.332 0.187-0.685 0.56-0.893 0.996-2.169 2.698-3.83 5.106s-2.512 3.892-2.553 4.452c-0.021 0.145-0.218 0.343-0.592 0.592-0.374 0.27-0.685 0.405-0.934 0.405-0.145 0-0.228-0.073-0.249-0.218 0.041 0.062 0.426-0.976 1.152-3.113 0.747-2.138 1.277-3.684 1.588-4.639 0.083-0.249 0.125-0.436 0.125-0.56 0-0.083-0.021-0.156-0.062-0.218-0.021-0.083-0.031-0.145-0.031-0.187 0-0.083 0.031-0.218 0.093-0.405 0.477-1.328 0.882-2.2 1.214-2.615 0.332-0.436 0.841-0.654 1.526-0.654 0.27 0 0.425 0.093 0.467 0.28-1.702 3.487-2.719 5.978-3.051 7.472 3.425-5.521 6.051-8.282 7.877-8.282 0.415 0 0.623 0.135 0.623 0.405 0 0.187-0.073 0.394-0.218 0.623z"></path>
</symbol>
</defs>
</svg>
